<?xml version="1.0" standalone="no"?>
<!DOCTYPE svg PUBLIC "-//W3C//DTD SVG 20010904//EN"
 "http://www.w3.org/TR/2001/REC-SVG-20010904/DTD/svg10.dtd">
<svg version="1.0" xmlns="http://www.w3.org/2000/svg"
 width="700.000000pt" height="700.000000pt" viewBox="0 0 700.000000 700.000000"
 preserveAspectRatio="xMidYMid meet">
<metadata>
Created by potrace 1.14, written by Peter Selinger 2001-2017
</metadata>
<g transform="translate(0.000000,700.000000) scale(0.100000,-0.100000)"
fill="#000000" stroke="none">
<path d="M2620 6284 c-181 -30 -358 -140 -465 -289 -58 -81 -79 -120 -108
-201 -35 -98 -40 -150 -41 -409 l-1 -230 -1003 -3 -1002 -2 0 -1064 0 -1064
191 2 c107 0 193 -3 197 -8 3 -5 5 -528 5 -1161 l0 -1152 3109 -2 3108 -2 0
1161 0 1160 195 0 195 0 0 1065 0 1065 -1000 0 c-945 0 -1000 1 -1001 18 0 9
-1 125 -3 257 -2 150 -7 257 -15 285 -77 283 -251 468 -526 561 l-70 24 -845
1 c-634 1 -864 -2 -920 -12z m1625 -447 c126 -7 211 -60 262 -165 l28 -57 2
-232 1 -233 -1040 0 -1040 0 4 238 c3 226 4 239 27 282 50 97 134 157 235 167
28 3 52 6 53 7 4 3 1398 -4 1468 -7z"/>
</g>
</svg>
